<svg width="46" height="40" viewBox="0 0 46 40" fill="none" xmlns="http://www.w3.org/2000/svg">
<path d="M25.7887 0C15.0987 0 6.36913 8.38901 5.81708 18.9398C7.52997 19.7395 10.187 19.5847 13.4838 18.4599C17.4822 17.0979 22.1669 14.3738 26.8154 10.7159L23.0233 9.53953L36.3395 4.58661L30.3031 17.4487L29.4208 13.4709C24.3028 17.5416 19.2364 20.4876 14.6962 22.0353C9.40795 23.8359 6.01314 23.3303 3.87203 22.2004C3.19616 21.8444 2.64412 21.4265 2.20042 20.9983C1.31818 20.1522 0.451418 18.8985 0.00771913 17.0566C0.00771913 17.0618 -0.482414 23.2375 6.34849 24.7491C6.83862 26.7613 7.63315 28.6496 8.68049 30.3728C10.3573 31.4407 13.2 31.3633 16.7961 30.1406C20.8048 28.7734 25.4843 26.0441 30.138 22.3913L26.3459 21.215L39.662 16.2621L33.6257 29.1242L32.7434 25.1464C27.6254 29.2171 22.559 32.163 18.0188 33.7108C12.7305 35.5114 9.33572 35.0058 7.19461 33.8759C6.51875 33.5199 5.9667 33.102 5.523 32.6738C5.523 32.6738 7.74666 36.1873 14.2267 36.3214C17.4926 38.6379 21.4807 40 25.7887 40C36.8348 40 45.7861 31.0486 45.7861 20.0026C45.7861 8.95653 36.8348 0 25.7887 0Z" fill="#FF6832"/>
</svg>
