<svg width="154" height="40" viewBox="0 0 154 40" fill="none" xmlns="http://www.w3.org/2000/svg">
<path d="M25.7887 0C15.0987 0 6.36913 8.38901 5.81708 18.9398C7.52997 19.7395 10.187 19.5847 13.4838 18.4599C17.4822 17.0979 22.1669 14.3738 26.8154 10.7159L23.0233 9.53953L36.3395 4.58661L30.3031 17.4487L29.4208 13.4709C24.3028 17.5416 19.2364 20.4876 14.6962 22.0353C9.40795 23.8359 6.01314 23.3303 3.87203 22.2004C3.19616 21.8444 2.64412 21.4265 2.20042 20.9983C1.31818 20.1522 0.451418 18.8985 0.00771913 17.0566C0.00771913 17.0618 -0.482414 23.2375 6.34849 24.7491C6.83862 26.7613 7.63315 28.6496 8.68049 30.3728C10.3573 31.4407 13.2 31.3633 16.7961 30.1406C20.8048 28.7734 25.4843 26.0441 30.138 22.3913L26.3459 21.215L39.662 16.2621L33.6257 29.1242L32.7434 25.1464C27.6254 29.2171 22.559 32.163 18.0188 33.7108C12.7305 35.5114 9.33572 35.0058 7.19461 33.8759C6.51875 33.5199 5.9667 33.102 5.523 32.6738C5.523 32.6738 7.74666 36.1873 14.2267 36.3214C17.4926 38.6379 21.4807 40 25.7887 40C36.8348 40 45.7861 31.0486 45.7861 20.0026C45.7861 8.95653 36.8348 0 25.7887 0Z" fill="#FF6832"/>
<path d="M64.458 24.2109H68.7471L71.2959 27.498L73.0889 29.6426L77.4658 35.25H72.8604L69.9072 31.5059L68.624 29.6953L64.458 24.2109ZM66.0752 33.3516C63.79 33.3516 61.7334 32.8184 59.9053 31.752C58.0889 30.6855 56.6533 29.1504 55.5986 27.1465C54.5557 25.1426 54.0342 22.7344 54.0342 19.9219C54.0342 17.0977 54.5557 14.6836 55.5986 12.6797C56.6533 10.6641 58.0889 9.12305 59.9053 8.05664C61.7334 6.99023 63.79 6.45703 66.0752 6.45703C68.3721 6.45703 70.4229 6.99023 72.2275 8.05664C74.0322 9.12305 75.4619 10.6641 76.5166 12.6797C77.5713 14.6836 78.0986 17.0977 78.0986 19.9219C78.0986 22.7344 77.5713 25.1426 76.5166 27.1465C75.4619 29.1504 74.0322 30.6855 72.2275 31.752C70.4229 32.8184 68.3721 33.3516 66.0752 33.3516ZM66.0752 29.0977C67.4932 29.0977 68.7471 28.7461 69.8369 28.043C70.9268 27.3398 71.7822 26.3086 72.4033 24.9492C73.0244 23.5781 73.335 21.9023 73.335 19.9219C73.335 17.9297 73.0244 16.248 72.4033 14.877C71.7822 13.5059 70.9268 12.4688 69.8369 11.7656C68.7471 11.0625 67.4932 10.7109 66.0752 10.7109C64.6572 10.7109 63.3975 11.0625 62.2959 11.7656C61.2061 12.4688 60.3506 13.5059 59.7295 14.877C59.1084 16.248 58.7979 17.9297 58.7979 19.9219C58.7979 21.9023 59.1084 23.5781 59.7295 24.9492C60.3506 26.3086 61.2061 27.3398 62.2959 28.043C63.3975 28.7461 64.6572 29.0977 66.0752 29.0977ZM93.585 24.7559V13.3477H98.208V33H93.7256V29.502H93.5146C93.0693 30.6035 92.3428 31.5059 91.335 32.209C90.3271 32.9121 89.085 33.2578 87.6084 33.2461C86.3193 33.2461 85.1826 32.9648 84.1982 32.4023C83.2256 31.8281 82.458 30.9902 81.8955 29.8887C81.3447 28.7754 81.0693 27.4336 81.0693 25.8633V13.3477H85.6924V25.1602C85.6924 26.3906 86.0322 27.375 86.7119 28.1133C87.4033 28.8516 88.3057 29.2148 89.4189 29.2031C90.0986 29.2031 90.7549 29.0391 91.3877 28.7109C92.0322 28.3828 92.5596 27.8906 92.9697 27.2344C93.3799 26.5781 93.585 25.752 93.585 24.7559ZM101.636 33V13.3477H106.118V16.6523H106.329C106.681 15.5039 107.296 14.625 108.175 14.0156C109.054 13.3945 110.056 13.084 111.181 13.084C111.427 13.084 111.708 13.0957 112.024 13.1191C112.353 13.1426 112.622 13.1719 112.833 13.207V17.4609C112.634 17.3906 112.323 17.332 111.901 17.2852C111.479 17.2383 111.075 17.2148 110.688 17.2148C109.833 17.2148 109.071 17.3965 108.403 17.7598C107.735 18.123 107.208 18.6211 106.821 19.2539C106.446 19.8867 106.259 20.625 106.259 21.4688V33H101.636ZM114.573 33V13.3477H119.196V33H114.573ZM116.894 10.5879C116.155 10.5879 115.522 10.3418 114.995 9.84961C114.468 9.35742 114.204 8.76562 114.204 8.07422C114.204 7.37109 114.468 6.77344 114.995 6.28125C115.522 5.78906 116.155 5.54297 116.894 5.54297C117.62 5.54297 118.247 5.78906 118.774 6.28125C119.302 6.77344 119.565 7.36523 119.565 8.05664C119.565 8.75977 119.302 9.35742 118.774 9.84961C118.247 10.3418 117.62 10.5879 116.894 10.5879ZM128.284 33.4043C127.03 33.4043 125.905 33.1816 124.909 32.7363C123.913 32.2793 123.128 31.6113 122.554 30.7324C121.979 29.8535 121.692 28.7695 121.692 27.4805C121.692 26.3789 121.897 25.4648 122.308 24.7383C122.718 24.0117 123.274 23.4316 123.978 22.998C124.692 22.5645 125.495 22.2363 126.386 22.0137C127.276 21.7793 128.196 21.6152 129.146 21.5215C130.306 21.3926 131.243 21.2812 131.958 21.1875C132.673 21.0938 133.188 20.9414 133.505 20.7305C133.833 20.5195 133.997 20.1914 133.997 19.7461V19.6582C133.997 18.709 133.716 17.9707 133.153 17.4434C132.591 16.916 131.771 16.6523 130.692 16.6523C129.556 16.6523 128.653 16.8984 127.985 17.3906C127.329 17.8828 126.884 18.4629 126.649 19.1309L122.343 18.5156C122.683 17.3203 123.245 16.3242 124.03 15.5273C124.815 14.7188 125.771 14.1152 126.896 13.7168C128.032 13.3066 129.286 13.1016 130.657 13.1016C131.595 13.1016 132.532 13.2129 133.47 13.4355C134.407 13.6465 135.269 14.0098 136.054 14.5254C136.839 15.041 137.466 15.7324 137.935 16.5996C138.403 17.4668 138.638 18.5508 138.638 19.8516V33H134.19V30.293H134.05C133.769 30.832 133.37 31.3418 132.854 31.8223C132.351 32.291 131.718 32.6719 130.956 32.9648C130.206 33.2578 129.315 33.4043 128.284 33.4043ZM129.462 29.9941C130.399 29.9941 131.208 29.8125 131.888 29.4492C132.567 29.0742 133.095 28.582 133.47 27.9727C133.845 27.3516 134.032 26.6777 134.032 25.9512V23.6484C133.88 23.7656 133.634 23.877 133.294 23.9824C132.954 24.0762 132.567 24.1641 132.134 24.2461C131.7 24.3281 131.272 24.3984 130.851 24.457C130.44 24.5156 130.083 24.5625 129.778 24.5977C129.087 24.6914 128.466 24.8496 127.915 25.0723C127.376 25.2832 126.948 25.5762 126.632 25.9512C126.315 26.3262 126.157 26.8125 126.157 27.4102C126.157 28.2656 126.468 28.9102 127.089 29.3438C127.71 29.7773 128.501 29.9941 129.462 29.9941ZM142.065 33V13.3477H146.548V16.6523H146.759C147.11 15.5039 147.726 14.625 148.604 14.0156C149.483 13.3945 150.485 13.084 151.61 13.084C151.856 13.084 152.138 13.0957 152.454 13.1191C152.782 13.1426 153.052 13.1719 153.263 13.207V17.4609C153.063 17.3906 152.753 17.332 152.331 17.2852C151.909 17.2383 151.505 17.2148 151.118 17.2148C150.263 17.2148 149.501 17.3965 148.833 17.7598C148.165 18.123 147.638 18.6211 147.251 19.2539C146.876 19.8867 146.688 20.625 146.688 21.4688V33H142.065Z" fill="white"/>
</svg>
